<svg xmlns="http://www.w3.org/2000/svg" xmlns:svg="http://www.w3.org/2000/svg" id="svg2" width="236.819" height="293.266" version="1.1"><defs id="defs4"><marker id="Arrow1Lend" orient="auto" overflow="visible" refX="0" refY="0"><path id="path3816" fill-rule="evenodd" stroke="#000" stroke-width="1pt" d="M 0,0 5,-5 -12.5,0 5,5 0,0 z" transform="matrix(-0.8,0,0,-0.8,-10,0)"/></marker><marker id="Arrow1Lstart" orient="auto" overflow="visible" refX="0" refY="0"><path id="path3813" fill-rule="evenodd" stroke="#000" stroke-width="1pt" d="M 0,0 5,-5 -12.5,0 5,5 0,0 z" transform="matrix(0.8,0,0,0.8,10,0)"/></marker><marker id="Arrow1Lend-1" orient="auto" overflow="visible" refX="0" refY="0"><path id="path3816-7" fill-rule="evenodd" stroke="#000" stroke-width="1pt" d="M 0,0 5,-5 -12.5,0 5,5 0,0 z" transform="matrix(-0.8,0,0,-0.8,-10,0)"/></marker><marker id="Arrow1Lend-0" orient="auto" overflow="visible" refX="0" refY="0"><path id="path3816-9" fill-rule="evenodd" stroke="#000" stroke-width="1pt" d="M 0,0 5,-5 -12.5,0 5,5 0,0 z" transform="matrix(-0.8,0,0,-0.8,-10,0)"/></marker></defs><metadata id="metadata7"/><g id="layer1" transform="translate(-72.251289,-43.377808)"><path id="path3033" fill="none" stroke="#000" stroke-dasharray="none" stroke-linecap="butt" stroke-linejoin="miter" stroke-miterlimit="4" stroke-opacity="1" stroke-width="5" d="M 278.8021,60.392383 C 95.863559,39.688431 246.64899,334.14372 74.751289,334.14372"/><path id="path3807" fill="none" stroke="#000" stroke-dasharray="none" stroke-linecap="butt" stroke-linejoin="miter" stroke-miterlimit="4" stroke-opacity="1" stroke-width="2.1" marker-end="url(#Arrow1Lend)" d="m 119.5,133.36219 c 59.85368,-20.35203 90.1536,-13.19655 130,1.5"/><path id="path3807-4" fill="none" stroke="#000" stroke-dasharray="none" stroke-linecap="butt" stroke-linejoin="miter" stroke-miterlimit="4" stroke-opacity="1" stroke-width="2.1" marker-end="url(#Arrow1Lend)" d="m 117,169.38954 c 59.85368,-20.35203 90.1536,-13.19655 130,1.5"/><path id="path3807-48" fill="none" stroke="#000" stroke-dasharray="none" stroke-linecap="butt" stroke-linejoin="miter" stroke-miterlimit="4" stroke-opacity="1" stroke-width="2.1" marker-end="url(#Arrow1Lend)" d="m 110.5,202.88954 c 59.85368,-20.35203 90.1536,-13.19655 130,1.5"/><text id="text4482" x="287" y="69.862" fill="#000" fill-opacity="1" stroke="none" font-family="Sans" font-size="40" font-style="normal" font-weight="normal" letter-spacing="0" word-spacing="0" xml:space="preserve" style="line-height:125%"><tspan style="-inkscape-font-specification:Times New Roman" id="tspan4484" x="287" y="69.862" font-family="Times New Roman" font-stretch="normal" font-style="normal" font-variant="normal" font-weight="normal">Γ</tspan></text></g></svg>